<?xml version="1.0" standalone="no"?>
<!DOCTYPE svg PUBLIC "-//W3C//DTD SVG 20010904//EN"
 "http://www.w3.org/TR/2001/REC-SVG-20010904/DTD/svg10.dtd">
<svg version="1.0" xmlns="http://www.w3.org/2000/svg"
 width="260.000000pt" height="260.000000pt" viewBox="0 0 260.000000 260.000000"
 preserveAspectRatio="xMidYMid meet">
<metadata>
Created by potrace 1.11, written by Peter Selinger 2001-2013
</metadata>
<g transform="translate(0.000000,260.000000) scale(0.100000,-0.100000)"
fill="#000000" stroke="none">
<path d="M1176 2588 c3 -4 -3 -8 -13 -9 -10 0 -31 -3 -48 -5 -16 -3 -38 -5
-48 -5 -9 0 -15 -4 -12 -8 2 -5 -13 -11 -35 -15 -22 -3 -40 -11 -40 -16 0 -6
-3 -9 -7 -9 -20 3 -34 -2 -29 -10 3 -5 -10 -12 -29 -15 -20 -4 -33 -11 -30
-16 3 -5 -5 -12 -17 -15 -13 -4 -40 -25 -61 -46 -21 -22 -42 -39 -47 -39 -5 0
-12 -9 -15 -20 -4 -11 -10 -18 -15 -15 -5 3 -12 -6 -16 -20 -3 -13 -10 -22
-15 -19 -5 3 -9 -2 -9 -11 0 -9 -4 -14 -9 -11 -5 3 -12 -6 -16 -21 -3 -16 -10
-30 -13 -33 -12 -9 -42 -71 -42 -86 0 -8 -4 -14 -9 -14 -6 0 -13 -20 -17 -45
-3 -25 -9 -43 -13 -40 -7 4 -11 -36 -15 -125 0 -19 -8 -41 -16 -48 -8 -8 -9
-11 -2 -7 17 9 17 -96 0 -114 -10 -10 -10 -12 -1 -7 17 9 17 -332 0 -353 -9
-12 -9 -13 1 -7 9 5 12 -6 12 -46 0 -30 -6 -60 -12 -67 -10 -10 -10 -12 -1 -7
17 9 17 -332 0 -353 -9 -12 -9 -13 0 -7 17 10 17 -212 0 -233 -9 -12 -9 -13 1
-7 17 10 17 -95 -1 -113 -9 -11 -9 -13 0 -7 8 5 13 1 13 -9 0 -9 -4 -14 -8
-11 -5 3 -9 -1 -9 -9 0 -8 4 -12 9 -9 13 8 9 -101 -5 -115 -9 -11 -9 -13 1 -7
7 5 12 1 12 -9 0 -9 -4 -14 -8 -11 -5 3 -9 -1 -9 -9 0 -8 4 -12 9 -9 13 8 9
-101 -5 -115 -9 -11 -9 -13 1 -7 7 5 12 1 12 -9 0 -9 -4 -14 -8 -11 -5 3 -9
-1 -9 -9 0 -8 4 -12 9 -9 4 3 8 -9 8 -25 0 -24 4 -31 20 -31 11 0 20 -4 20
-10 0 -13 54 -13 78 -1 9 5 25 12 34 15 15 4 17 28 17 243 0 439 -3 393 26
393 14 0 25 -6 25 -12 0 -10 3 -9 9 1 5 7 10 9 12 3 2 -5 41 -12 87 -16 46 -3
87 -8 93 -11 5 -4 9 -141 9 -340 0 -388 -3 -375 87 -375 32 0 57 6 66 15 12
11 17 12 20 2 3 -6 6 146 6 338 l1 350 134 -3 134 -3 0 -324 c0 -178 3 -333 7
-344 13 -42 144 -45 160 -4 3 9 5 166 5 350 0 257 3 335 13 338 13 5 112 13
165 14 24 1 31 5 26 14 -5 8 -2 8 9 -2 11 -9 17 -10 17 -2 0 6 7 11 15 11 15
0 20 -67 16 -219 -1 -30 4 -60 11 -69 9 -11 10 -14 1 -8 -17 9 -16 -213 1
-233 8 -12 8 -13 -2 -7 -9 6 -12 -4 -10 -40 2 -35 8 -50 23 -58 11 -6 22 -13
25 -16 9 -10 80 -12 80 -2 0 5 10 12 23 16 12 3 27 17 34 31 6 14 7 23 3 20
-12 -8 -9 37 4 54 8 11 8 13 -1 7 -10 -5 -12 3 -11 33 1 26 5 38 12 34 6 -4 5
1 -3 10 -11 14 -11 20 0 34 9 11 10 14 2 9 -10 -5 -12 3 -11 33 1 26 5 38 12
34 6 -4 5 1 -3 10 -11 14 -11 20 0 34 9 11 10 14 2 9 -17 -9 -15 72 1 93 8 11
8 13 -1 8 -15 -10 -15 52 1 72 8 11 8 13 -1 8 -15 -10 -15 52 1 72 8 11 8 13
-1 7 -17 -10 -17 16 0 33 10 11 10 13 0 7 -8 -4 -13 -2 -13 6 0 8 6 20 13 27
10 11 10 13 -1 7 -16 -10 -16 35 1 53 10 11 9 12 -1 6 -11 -5 -13 1 -11 26 2
19 8 40 13 48 8 11 8 13 -1 7 -8 -4 -13 -2 -13 6 0 8 6 20 13 27 10 11 9 12
-1 6 -11 -5 -13 1 -11 26 2 19 8 40 13 48 8 11 8 13 -1 7 -8 -4 -13 -2 -13 6
0 8 6 20 13 27 10 11 10 13 0 7 -9 -5 -13 0 -13 16 0 13 6 30 13 37 10 11 10
13 0 7 -8 -4 -13 -2 -13 6 0 8 6 20 13 27 10 11 10 13 0 7 -8 -4 -13 -2 -13 6
0 8 6 20 13 27 10 11 10 13 0 7 -8 -4 -13 -2 -13 6 0 8 6 20 13 27 10 11 10
13 0 7 -8 -4 -13 -2 -13 6 0 8 6 20 13 27 10 11 10 13 0 7 -8 -4 -13 -2 -13 6
0 8 6 20 13 27 10 11 10 13 0 7 -8 -4 -13 -2 -13 6 0 8 6 20 13 27 10 11 10
13 0 7 -8 -4 -13 -2 -13 6 0 8 6 20 13 27 10 11 10 13 0 7 -9 -5 -13 0 -13 16
0 13 6 30 13 37 10 11 9 12 -1 6 -11 -5 -13 1 -11 26 2 19 8 40 13 48 8 11 8
13 -1 7 -8 -4 -13 -2 -13 6 0 8 6 20 13 27 10 11 9 12 -1 6 -11 -5 -13 1 -11
26 2 19 8 40 13 48 8 11 8 13 -1 7 -8 -4 -13 -2 -13 6 0 8 6 20 13 27 10 11
10 13 0 7 -9 -5 -13 0 -13 16 0 13 6 30 13 37 10 11 9 12 -1 6 -10 -5 -13 -1
-12 11 4 35 0 55 -9 49 -11 -6 -7 28 5 47 4 6 3 8 -3 5 -6 -4 -11 3 -11 16 0
47 -14 122 -24 128 -7 4 -5 8 3 12 10 4 10 6 2 6 -7 1 -13 8 -13 16 0 8 -4 15
-9 15 -5 0 -12 18 -16 40 -4 22 -11 38 -15 35 -5 -3 -11 7 -15 23 -3 15 -15
34 -25 42 -11 8 -20 20 -20 26 0 7 -19 32 -42 56 -23 24 -41 46 -40 51 1 4 -5
7 -13 7 -9 0 -18 7 -21 15 -3 8 -14 17 -23 20 -10 3 -26 13 -37 23 -31 28
-149 82 -178 82 -15 0 -25 4 -22 9 3 5 -18 13 -46 17 -29 4 -55 8 -58 9 -3 0
-10 4 -17 8 -6 4 -15 3 -18 -3 -5 -8 -11 -8 -19 -1 -13 11 -147 11 -141 0 2
-3 -2 -6 -10 -6 -8 0 -12 3 -10 7 2 4 -2 7 -10 7 -8 0 -12 -4 -9 -9z m-155
-760 c20 -23 25 -74 9 -98 -5 -8 -10 -11 -10 -6 0 5 -7 2 -16 -5 -18 -15 -47
-22 -39 -9 3 5 -9 11 -26 15 -23 5 -28 9 -18 16 10 6 11 9 2 9 -21 0 -15 49
10 75 28 30 64 31 88 3z m619 3 c7 -11 17 -18 22 -15 4 3 8 -12 8 -34 0 -30
-6 -42 -28 -59 -19 -14 -34 -18 -42 -13 -8 5 -18 6 -22 4 -5 -3 -11 2 -14 10
-3 9 -9 14 -13 12 -4 -3 -8 13 -10 35 -1 24 2 38 7 35 6 -3 13 5 16 19 8 31
54 35 76 6z"/>
</g>
</svg>
